<?xml version="1.0" encoding="UTF-8"?>
<svg xmlns="http://www.w3.org/2000/svg" version="1.1" viewBox="0 0 31 31">
  <defs>
    <style>
      .cls-1 {
        fill-rule: evenodd;
      }
    </style>
  </defs>
  <!-- Generator: Adobe Illustrator 28.7.3, SVG Export Plug-In . SVG Version: 1.2.0 Build 164)  -->
  <g>
    <g id="Layer_1">
      <path class="cls-1" d="M4.9.6h15.5c1.2,0,2.2.5,3,1.2.8.8,1.3,1.8,1.3,3v9.4c0,1.2-.5,2.2-1.3,3-.8.8-1.8,1.2-3,1.2h-8.1l-6.5,5.5c-.3.3-.8.2-1,0-.1-.1-.2-.3-.2-.5l.3-4.9h0c-1.2,0-2.2-.5-3-1.2-.8-.8-1.3-1.8-1.3-3V4.8c0-1.2.5-2.2,1.3-3,.8-.8,1.8-1.2,3-1.2h0ZM16.3,7.8c1.1,0,2,.9,2,2s-.9,2-2,2-2-.9-2-2c0-1.1.9-2,2-2h0ZM9,7.8c1.1,0,2,.9,2,2s-.9,2-2,2-2-.9-2-2c0-1.1.9-2,2-2h0ZM27.2,7.4c.8.2,1.6.6,2.2,1.1.8.7,1.2,1.8,1.2,2.9v9.4c0,1.1-.5,2.2-1.2,2.9-.8.7-1.8,1.2-3,1.2h-.2l.4,5h0c0,.2,0,.3-.1.4-.2.3-.6.3-.9,0l-6.5-5.7h-8.6l4.2-4.2h9c2,0,3.6-1.6,3.6-3.5V7.7c0,0,0-.2,0-.3h0ZM20.4,2H4.9c-.8,0-1.5.3-2,.8-.5.5-.8,1.2-.8,2v9.4c0,.8.3,1.5.8,2s1.2.8,2,.8h.8s0,0,0,0c.4,0,.7.4.7.8l-.3,4,5.4-4.5c.1-.1.3-.2.5-.2h8.4c.8,0,1.5-.3,2-.8s.8-1.2.8-2V4.8c0-.8-.3-1.5-.8-2-.5-.5-1.2-.8-2-.8h0Z"/>
    </g>
  </g>
</svg>