<?xml version="1.0" encoding="UTF-8"?>
<svg xmlns="http://www.w3.org/2000/svg" version="1.1" viewBox="0 0 31 31">
  <g>
    <g id="Layer_1">
      <g id="svg_1">
        <path fill="#32a16b" id="svg_2" class="cls-1" d="M3.3,29.9v-12.6c-.6.3-1.1.3-1.5,0-.3-.1-.6-.4-.9-.7-.2-.3-.3-.7-.4-1.1,0-.7.1-1.4.6-2.1h0s0,0,0,0L15.1.7c.2-.2.5-.2.7,0l14,12.7h0s0,0,0,0c.7.8.8,1.7.7,2.5,0,.4-.2.7-.4,1s-.5.5-.8.6c-.5.2-1.1.2-1.7-.1v12.5h-1.4v-13.2c0-.3-9.6-9.2-10.6-10.1-1.1,1-10.9,9.8-10.9,10.2v13.2h-1.4,0ZM16,16.4v5.1h3.9c0-1.4-.5-2.7-1.3-3.7s-1.6-1.4-2.6-1.5h0ZM16,22.7v4.5h3.9v-4.5s-3.9,0-3.9,0ZM15,27.1v-4.5h-3.9v4.5h3.9ZM15,21.6v-5.1c-1,.1-1.9.7-2.6,1.5-.8.9-1.3,2.2-1.3,3.6h3.9ZM9.2,29.4h12.6v1.1h-12.6v-1.1h0ZM15.5,15.3c1.5,0,2.8.7,3.8,1.8s1.6,2.7,1.6,4.4v6.7h-10.6v-6.7c0-1.7.6-3.3,1.6-4.4,1-1.1,2.3-1.8,3.8-1.8h0ZM23.4,1.5l4.2.2v6.6l-4.2-3.2V1.5h0Z"/>
      </g>
    </g>
  </g>
</svg>