<?xml version="1.0" encoding="UTF-8"?>
<svg xmlns="http://www.w3.org/2000/svg" version="1.1" viewBox="0 0 31 31">
  <defs>
    <style>
      .cls-1 {
        fill-rule: evenodd;
      }
    </style>
  </defs>
  <!-- Generator: Adobe Illustrator 28.7.3, SVG Export Plug-In . SVG Version: 1.2.0 Build 164)  -->
  <g>
    <g id="Layer_1">
      <path class="cls-1" d="M3.3,30.5v-12.8c-.6.3-1.1.3-1.6,0-.3-.1-.6-.4-.9-.7-.2-.3-.4-.7-.4-1.2,0-.7.1-1.4.6-2.1h0s0,0,0,0L15.1.7c.2-.2.5-.2.7,0l14,13h0s0,0,0,0c.6.8.8,1.8.7,2.5,0,.4-.2.7-.4,1s-.5.5-.8.6c-.5.2-1.1.2-1.7-.1v12.7h-1.4v-13.5c0-.3-9.6-9.3-10.6-10.3-1.1,1-10.9,10-10.9,10.4v13.5h-1.4ZM15.9,16.5v4.4h3.9c0-1.2-.5-2.3-1.3-3.1-.7-.7-1.6-1.2-2.6-1.3h0ZM15.9,21.9v3.8h3.9v-3.8h-3.9ZM15,25.7v-3.8h-3.9v3.8h3.9ZM15,20.9v-4.4c-1,.1-2,.6-2.6,1.3-.8.8-1.3,1.9-1.3,3.1h0s3.9,0,3.9,0h0ZM9.2,27.6h12.6v.9h-12.6v-.9h0ZM15.5,15.6c1.5,0,2.8.6,3.8,1.6,1,1,1.6,2.3,1.6,3.8v5.7h-10.7v-5.7c0-1.5.6-2.8,1.6-3.8,1-1,2.3-1.6,3.8-1.6h0ZM23.4,3.8l4.2.2v5.7l-4.2-2.8v-3.1h0Z"/>
    </g>
  </g>
</svg>