<?xml version="1.0" encoding="UTF-8"?>
<svg xmlns="http://www.w3.org/2000/svg" version="1.1" viewBox="0 0 30.7 30.8">
  <g>
    <g id="Layer_1">
      <path fill="#32a16b" class="cls-1" d="M21.7,15.5h2.2c0,.8-.2,1.6-.7,2.2-.1.1-.2.3-.3.4l-1.2-2.5h0ZM19.3.8c0-.1,0-.3,0-.4,0,0,.2,0,.3,0,.1.2.3.4.4.7.1.2.3.5.4.7,0,.1,0,.3,0,.4,0,0-.2,0-.3,0-.1-.2-.2-.5-.4-.7-.1-.2-.3-.4-.4-.7h0ZM16,1.4c0,0-.1-.2,0-.4s.2-.2.3,0c.5.4,1.2,1.3,1.7,2.2.5.9.9,1.9,1.1,2.7,0,.1,0,.3-.1.3-.1,0-.2,0-.2-.2-.1-.8-.5-1.7-1-2.5-.5-.9-1.1-1.7-1.6-2.1h0ZM17.7,1c0,0,0-.3,0-.4,0-.1.2-.1.3,0,.3.4.7.9,1,1.5.3.5.6,1.1.8,1.7,0,.1,0,.3,0,.4,0,0-.2,0-.3-.1-.2-.5-.5-1.1-.8-1.6-.3-.6-.7-1.1-1-1.5h0ZM11.3,8.4c0,.2,0,.4,0,.7,0,.1,0,.2,0,.3,0,.1,0,.2.1.3,0,0,.1.2.2.3,0,0,.1.2.2.2h0c.1.2.3.3.5.3.2,0,.5-.2.7-.4h0s0,0,0,0c0,0,.1-.1.2-.2,0,0,0,0,.1,0,0,0,0,0,.1.1,0,0,0,0,0,0v.2c0,0,0,0,0,0,0,.2.2.5.3.7,0,.2.2.4.3.6h0s0,0,0,0c0,0,0,0,0,0h0c0,.1.1.2.2.3,0,.1.1.2.2.2h0s0,0,.1,0c0,0,0,0,.2-.2,0,0,0,0,0,0h0c0,0,0,0,0,0,0,0,0-.2.1-.2,0,0,0-.1,0-.2,0,0,0,0,0,0h0c-.2,0-.4,0-.5-.6h0s0,0,0,0h0c0,0,0-.1,0-.2,0,0,0,0,0,0h0s0,0,0,0h0s0,0,0,0h0c0,0-.1-.1-.2-.2,0,0,0-.2,0-.3h0c0-.1,0-.2,0-.3,0-.1,0-.3,0-.4h0s0,0,0-.1h0s0,0,0,0c0,0,0,0,0,0,.6-.3,1-.5,1.4-.6.3,0,.6,0,.9,0-.5-.5-1.1-1.3-1.6-2.2-.5-.9-.9-1.9-1.1-2.8-.1.5-.3,1.1-.6,1.8-.3.8-2,2.6-2.1,3.2h0ZM14.9,5c.2-.1.4-.1.5-.1.5,0,.9.6.8,1.3,0,.3,0,.6-.2.9.1.1.2.3.3.4.2.2.3.4.5.5.2.1.3.2.5.3,0,0,0,0,0,0,0,0,0,0,0,0,0,0,0,0,0,0,0,0,0-.2,0-.2,0-.1,0-.2,0-.3h0c0-.4-.2-.8-.3-1.3-.2-.5-.4-1.1-.7-1.6-.3-.5-.6-1-.9-1.4-.3-.4-.6-.7-.8-.9h0c0,0-.2-.1-.3-.2h0c0,0-.1,0-.2,0h0s0,0,0,0h0s0,0,0,0c0,0,0,0,0,0h0c0,.2,0,.5,0,.8,0,.3.2.7.3,1.1,0,.3.2.5.3.7h0ZM14.6,10.4h0ZM16.8,8.8h0c-.6,0-1.3,0-2.2.6,0,0,0,.1,0,.2,0,0,0,.1,0,.2h0s0,0,0,.1c0,0,0,0,0,0h0s0,0,0,0h0c.1,0,.2.1.2.2h0c0,0,0,.2,0,.4h0s0,0,0,0h0c0,.2,0,.2.1.2h0c.3,0,.4.2.4.5s0,.5-.2.7h0s0,0,0,0c0,0,0,0,0,0h0s0,0,0,0c-.1.3-.3.4-.4.4-.1,0-.3,0-.4-.1-.2-.2-.3-.4-.4-.6h0s0,0,0,0h0c0,0,0,0,0,0-.1-.2-.2-.4-.3-.6,0-.2-.2-.4-.3-.7h0s0,0,0,0h0c0,0,0,0,0,0-.3.3-.5.5-.9.4-.2,0-.5-.2-.7-.4,0,0-.2-.2-.2-.3,0-.1-.1-.2-.2-.3,0-.1-.1-.2-.2-.4,0-.1,0-.3-.1-.4h0c0-.3,0-.6,0-.9.2-1.2,2.1-2.5,2.8-5.5h0c0-.1,0-.3,0-.4h0c0-.1,0-.2,0-.3h0s0,0,0-.1c0,0,0,0,0,0,0,0,0,0,0,0,0,0,0,0,.1,0h0c.1,0,.2,0,.3,0,.1,0,.2.1.4.2h0c.3.2.6.6.9,1,.3.4.6,1,.9,1.5.3.6.6,1.2.8,1.7.2.5.3,1,.4,1.4,0,.2,0,.3,0,.5,0,.2,0,.3,0,.4h0c-.1.4-.6.4-.9.3,0,0,0,0,0,0h0ZM4.2,6.8h5.5v1.1h-5.1v19.8h21.5V8h-6.4l.3-1.1h6.4c.3,0,.5.3.5.7v20.4c0,.3-.2.6-.4.7h3.2c.3,0,.6.4.6.8h0c0,.5-.3.8-.6.8H1c-.3,0-.6-.4-.6-.8H.4c0-.5.3-.8.6-.8h3.1c-.2,0-.4-.4-.4-.7V7.5c0-.4.2-.7.5-.7h0ZM14.5,29h1.7c.2,0,.3.2.3.4h0c0,.2-.1.4-.3.4h-1.7c-.2,0-.3-.2-.3-.4h0c0-.2.1-.4.3-.4h0ZM9.6,13.1h.7s0,0,0,0v3.3c0,0,0,0,0,0h-.7s0,0,0,0v-3.3c0,0,0,0,0,0h0ZM6.5,12h.7s0,0,0,0v4.4c0,0,0,0,0,0h-.7s0,0,0,0v-4.4c0,0,0,0,0,0h0ZM8,11.4h.7s0,0,0,0v5.1c0,0,0,0,0,0h-.7s0,0,0,0v-5.1c0,0,0,0,0,0h0ZM6.5,25.2c-.1,0-.3-.2-.3-.4s.1-.4.3-.4h17.7c.1,0,.3.2.3.4s-.1.4-.3.4H6.5ZM6.5,22.5c-.1,0-.3-.2-.3-.4s.1-.4.3-.4h7.6c.1,0,.3.2.3.4s-.1.4-.3.4h-7.6ZM15.1,22.5c-.1,0-.3-.2-.3-.4s.1-.4.3-.4h9.1c.1,0,.3.2.3.4s-.1.4-.3.4h-9.1ZM6.5,20.1c-.1,0-.3-.2-.3-.4s.1-.4.3-.4h11.5c.1,0,.3.2.3.4s-.1.4-.3.4H6.5ZM21.5,14.9v-3.3c-.1,0,0-.1,0-.1,0,0,0,0,0,0h0c.7,0,1.3.3,1.7.9.4.6.7,1.4.8,2.2,0,0,0,.1,0,.1l-2.4.2s0,0,0-.1t0,0h0ZM21.5,11.8v3c.1,0,2.3-.2,2.3-.2,0-.8-.3-1.5-.7-2-.4-.5-1-.8-1.6-.8h0ZM21.2,15.4l1.2,2.8c-.4.3-.8.4-1.2.4-1.3,0-2.4-1.5-2.4-3.3s.9-3,2-3.2l.3,3.2h0Z"/>
    </g>
  </g>
</svg>