<?xml version="1.0" encoding="UTF-8"?>
<svg xmlns="http://www.w3.org/2000/svg" version="1.1" viewBox="0 0 30.8 31">
  <!-- Generator: Adobe Illustrator 28.7.3, SVG Export Plug-In . SVG Version: 1.2.0 Build 164)  -->
  <g>
    <g id="Layer_1">
      <path d="M15.5.5c4.1,0,7.9,1.7,10.6,4.4,2.7,2.7,4.4,6.5,4.4,10.6s-1.7,7.9-4.4,10.6c-2.7,2.7-6.5,4.4-10.6,4.4s-7.9-1.7-10.6-4.4C2.2,23.4.5,19.6.5,15.5s1.7-7.9,4.4-10.6C7.6,2.2,11.3.5,15.5.5h0ZM11.8,21.7c1.5,3.1,5.9,3.2,7.3,0-.4-.4-.7-.8-.9-1.2,0,0,0-.1-.1-.2-.7.5-1.5.9-2.6.9-1.2,0-2-.4-2.7-1.1,0,0,0,0-.1-.1-.1.3-.2.6-.4.9-.1.3-.3.6-.4.8h0ZM23.1,26.8l.3-3.5c-1.2-.2-2.5-.5-3.9-1.3-1,3.4-6.5,3.8-8,0-1.2.6-2.5,1-3.9,1.2l.5,3.7c2.1,1.4,4.7,2.2,7.4,2.2,2.8,0,5.4-.9,7.6-2.3h0ZM4.5,23.6h0c1.5-.8,5.2-1.1,6.8-2.2.1-.2.2-.4.4-.7.2-.4.3-.9.4-1.2-.4-.5-.8-1.1-1.2-1.7l-1.2-1.9c-.4-.6-.7-1.2-.7-1.7,0-.2,0-.4.1-.6,0-.2.2-.4.4-.5,0,0,.2-.1.3-.1,0-1-.1-2.3,0-3.4,0-.3,0-.5.1-.8.3-1.1,1.1-2,2-2.6.5-.3,1.1-.6,1.7-.7.4-.1-.3-1.3,0-1.4,1.9-.2,5,1.5,6.3,3,.7.7,1.1,1.7,1.2,2.9v3.1h0c.3.1.5.3.6.6,0,.4,0,.9-.3,1.6h0s0,0,0,0l-1.4,2.2c-.5.8-1,1.6-1.7,2.3,0,0,.1.2.2.3.3.4.5.8.9,1.1,0,0,0,0,0,0,1.6,1.1,5.4,1.4,6.8,2.2h0c1.7-2.2,2.7-5.1,2.7-8.1s-1.5-7.2-4-9.7c-2.5-2.5-5.9-4-9.6-4s-7.2,1.5-9.7,4c-2.5,2.5-4,5.9-4,9.7s1,5.9,2.7,8.1h0ZM10.7,13.5c-.3,0-.5,0-.6.2,0,0-.1.1-.2.2,0,0,0,.2,0,.3,0,.4.2.8.6,1.4h0s1.2,1.9,1.2,1.9c.5.8,1,1.5,1.6,2.1.6.5,1.3.9,2.3.9,1,0,1.8-.4,2.4-1,.6-.6,1.1-1.4,1.6-2.2l1.3-2.2c.2-.6.3-1,.3-1.2,0-.1-.2-.2-.4-.2,0,0-.1,0-.2,0,0,0-.1,0-.2,0,0,0,0,0-.1,0-.1,0-.2,0-.4,0l.5-2c-3.4.5-6-2-9.6-.5l.3,2.4c-.1,0-.3,0-.4,0h0Z"/>
    </g>
  </g>
</svg>