<?xml version="1.0" encoding="UTF-8"?>
<svg id="Layer_1" data-name="Layer 1" xmlns="http://www.w3.org/2000/svg" xmlns:xlink="http://www.w3.org/1999/xlink" viewBox="0 0 3000 3000">
  <defs>
    <style>
      .cls-1 {
        fill: url(#linear-gradient);
      }
    </style>
    <linearGradient id="linear-gradient" x1="526.28" y1="1500" x2="2473.72" y2="1500" gradientUnits="userSpaceOnUse">
      <stop offset="0" stop-color="#2012ef"/>
      <stop offset="1" stop-color="#22ee03"/>
    </linearGradient>
  </defs>
  <path class="cls-1" d="m2473.72,2086.08c0,215.94-72.18,386.41-216.55,511.43-144.37,125.02-353.86,187.37-627.85,187.37h-830.27l551.06-260.79,105.05,222.08,394.09-796.48-853-172.94,105.67,223.31-575.63,272.46V215.12h1081.23c237.75,0,425.43,47.92,562.42,144.06l-710.48,336.35-105.05-222.08-394.09,796.48,853,172.94-105.67-223.31,707.41-335.12c-2.77,152.35-44.54,277.06-125.02,375.36-83.86,101.98-193.82,168.63-329.59,200.27,155.43,31.64,279.52,105.05,373.21,220.24,93.38,115.19,140.07,250.65,140.07,405.77Z"/>
</svg>